<svg id="Grupo_748" data-name="Grupo 748" xmlns="http://www.w3.org/2000/svg" width="35.025" height="42.88" viewBox="0 0 35.025 42.88">
  <g id="fan">
    <path id="Trazado_715" data-name="Trazado 715" d="M9.349,34.842H14.04V37.52s0,0,0,0a4.022,4.022,0,0,0,3.349,3.954v.731a.669.669,0,0,0,.67.67H28.78a.669.669,0,0,0,.67-.67v-.731A4.023,4.023,0,0,0,32.8,37.525s0,0,0,0V34.842h4.691a3.354,3.354,0,0,0,3.35-3.35V3.35A3.354,3.354,0,0,0,37.491,0H9.349A3.354,3.354,0,0,0,6,3.35V31.492A3.354,3.354,0,0,0,9.349,34.842ZM15.38,37.52s0,0,0,0V34.842h.67V37.52s0,0,0,.007a2.006,2.006,0,0,0,1.339,1.88v.7A2.678,2.678,0,0,1,15.38,37.52ZM19.4,34.842V38.19H18.058a.669.669,0,0,1-.668-.669s0,0,0,0V34.842Zm2.009,0V38.19h-.669V34.842Zm2.679,0V38.19H22.75V34.842Zm2.009,0V38.19H25.43V34.842Zm3.351,0v2.675s0,0,0,0a.669.669,0,0,1-.668.669H27.439V34.842Zm-10.72,6.7v-.667s0,0,0,0,0,0,0,0V39.53h9.38v1.337s0,0,0,0,0,0,0,0v.667Zm12.73-4.023s0,0,0,0A2.676,2.676,0,0,1,29.45,40.1v-.7a2.006,2.006,0,0,0,1.339-1.88s0,0,0-.006V34.842h.67ZM7.339,3.35a2.012,2.012,0,0,1,2.01-2.01H37.491A2.012,2.012,0,0,1,39.5,3.35V31.492a2.012,2.012,0,0,1-2.01,2.01H9.349a2.012,2.012,0,0,1-2.01-2.01Z" transform="translate(-5.999)" fill="#293147"/>
    <path id="Trazado_716" data-name="Trazado 716" d="M11.013,19a13.8,13.8,0,0,0,1.833,7,.728.728,0,0,0,.038.066,14.027,14.027,0,0,0,19.136,5.22c.016-.006.029-.016.045-.023A13.993,13.993,0,0,0,39.13,19.183a.676.676,0,0,0-.007-.272,14.149,14.149,0,0,0-1.818-6.755.616.616,0,0,0-.094-.171,14.022,14.022,0,0,0-19.086-5.14c-.014.006-.026.015-.04.021a14.011,14.011,0,0,0-7.075,12.109c0,.009,0,.019,0,.028ZM12.4,20.152a6.667,6.667,0,0,0,2.362.487,3.753,3.753,0,0,0,2.748-1.094c1.276-1.276,2.941-.479,3.566-.1a3.929,3.929,0,0,0,.113.63,3.959,3.959,0,0,0-3.723,2.844c-.471,1.758-2.693,2.106-3.6,2.17a12.789,12.789,0,0,1-1.089-2.724,12.926,12.926,0,0,1-.381-2.212Zm8.829-8.692c-1.753-.47-2.1-2.691-2.165-3.6a12.743,12.743,0,0,1,4.932-1.473c-.505,1.3-1,3.509.606,5.112,1.275,1.276.479,2.941.1,3.566a3.99,3.99,0,0,0-.63.113A3.96,3.96,0,0,0,21.227,11.46Zm9.251-3.91c-1.087.872-2.617,2.541-2.03,4.731.467,1.745-1.061,2.789-1.7,3.14a3.985,3.985,0,0,0-.6-.22,3.958,3.958,0,0,0-.6-4.645c-1.287-1.287-.466-3.392-.074-4.2A12.718,12.718,0,0,1,30.477,7.549Zm7.268,10.437c-1.3-.5-3.5-.99-5.1.61-1.274,1.275-2.941.478-3.566.1a3.907,3.907,0,0,0-.113-.63,3.962,3.962,0,0,0,3.723-2.844c.47-1.753,2.684-2.093,3.591-2.163a12.829,12.829,0,0,1,1.469,4.926Zm-1.153,6.483c-.871-1.087-2.539-2.614-4.728-2.025-1.742.467-2.789-1.061-3.141-1.7a3.906,3.906,0,0,0,.219-.6A4.982,4.982,0,0,0,31,20.63a3.557,3.557,0,0,0,2.589-1.085c1.288-1.288,3.392-.468,4.2-.076A12.608,12.608,0,0,1,36.592,24.469Zm-7.671,2.212c1.753.469,2.1,2.689,2.165,3.595a12.755,12.755,0,0,1-4.932,1.473c.505-1.3,1-3.509-.606-5.111-1.275-1.276-.48-2.941-.1-3.566a4.012,4.012,0,0,0,.631-.113A3.96,3.96,0,0,0,28.921,26.681ZM19.671,30.59c1.086-.872,2.616-2.541,2.03-4.73-.467-1.745,1.06-2.789,1.7-3.141a3.985,3.985,0,0,0,.6.22,3.96,3.96,0,0,0,.6,4.645c1.288,1.287.466,3.392.074,4.2A12.679,12.679,0,0,1,19.671,30.59Zm5.4-14.2a2.68,2.68,0,1,1-2.68,2.68A2.683,2.683,0,0,1,25.074,16.39ZM14.638,26.343c1.377-.211,3.534-.89,4.12-3.079.468-1.747,2.314-1.886,3.041-1.871a4.093,4.093,0,0,0,.408.49,3.96,3.96,0,0,0-1.8,4.324c.469,1.752-1.28,3.161-2.031,3.672a12.633,12.633,0,0,1-3.738-3.536Zm17.71,3.16c-.212-1.378-.9-3.532-3.081-4.117-1.745-.468-1.885-2.315-1.871-3.042a3.985,3.985,0,0,0,.49-.409,3.964,3.964,0,0,0,4.323,1.8c1.761-.471,3.169,1.286,3.677,2.034A12.676,12.676,0,0,1,32.348,29.5ZM35.5,11.8c-1.378.214-3.53.894-4.115,3.077-.468,1.747-2.314,1.885-3.042,1.871a4.147,4.147,0,0,0-.408-.49,3.96,3.96,0,0,0,1.8-4.323c-.47-1.753,1.28-3.162,2.03-3.674A12.616,12.616,0,0,1,35.5,11.8ZM17.8,8.637c.212,1.377.894,3.532,3.08,4.117,1.746.468,1.885,2.314,1.871,3.042a4.086,4.086,0,0,0-.49.408,3.956,3.956,0,0,0-4.324-1.8c-1.756.47-3.168-1.289-3.676-2.036A12.672,12.672,0,0,1,17.8,8.637Zm-4.246,5.032c.87,1.085,2.537,2.613,4.73,2.029,1.748-.466,2.791,1.061,3.141,1.7a3.932,3.932,0,0,0-.22.6,3.96,3.96,0,0,0-4.645.6c-1.292,1.292-3.408.46-4.214.07A12.585,12.585,0,0,1,13.554,13.669Z" transform="translate(-7.653 -1.649)" fill="#293147"/>
  </g>
  <path id="Trazado_717" data-name="Trazado 717" d="M4.261,0H.983A.976.976,0,0,0,0,.968a.976.976,0,0,0,.983.968H4.261A.976.976,0,0,0,5.244.968.976.976,0,0,0,4.261,0Z" transform="translate(35.025 23.45) rotate(90)" fill="#fff"/>
  <path id="Trazado_723" data-name="Trazado 723" d="M2.97,0H.685A.681.681,0,0,0,0,.677a.681.681,0,0,0,.685.677H2.97A.681.681,0,0,0,3.654.677.681.681,0,0,0,2.97,0Z" transform="translate(34.842 27.639) rotate(90)" fill="#293147"/>
  <path id="Trazado_724" data-name="Trazado 724" d="M2.97,0H.685A.681.681,0,0,0,0,.677a.681.681,0,0,0,.685.677H2.97A.681.681,0,0,0,3.654.677.681.681,0,0,0,2.97,0Z" transform="translate(34.842 21.575) rotate(90)" fill="#293147"/>
</svg>
