<svg xmlns="http://www.w3.org/2000/svg" width="51.534" height="46.424" viewBox="0 0 51.534 46.424">
  <g id="_005-Mining" data-name="005-Mining" transform="translate(0 0)">
    <path id="Trazado_428" data-name="Trazado 428" d="M39.745,153.594H5.188V127.779h6.04a.753.753,0,1,0,0-1.505H5.188v-3.318a.753.753,0,0,0-.753-.753H.853a.753.753,0,1,0,0,1.505h2.83v6.246H1.455A1.457,1.457,0,0,0,0,131.409v7.1a1.457,1.457,0,0,0,1.455,1.455H3.683v2.865H1.455A1.457,1.457,0,0,0,0,144.284v7.1a1.457,1.457,0,0,0,1.455,1.455H3.683v1.508a.753.753,0,0,0,.753.753H9.416v2.327a1.457,1.457,0,0,0,1.455,1.455h14.22a1.457,1.457,0,0,0,1.455-1.455V155.1h13.2a.753.753,0,1,0,0-1.505ZM1.505,138.459v-7H3.683v7Zm0,12.874v-7H3.683v7Zm23.536,6.043H10.922V155.1h14.12Z" transform="translate(0 -112.458)" fill="#293147"/>
    <path id="Trazado_429" data-name="Trazado 429" d="M170.868,72.338h-2.709a7.719,7.719,0,0,0-3.026-8.787.753.753,0,0,0-.843,1.247,6.218,6.218,0,1,1-3.476-1.061c.15,0,.3.005.45.016a.753.753,0,1,0,.107-1.5c-.184-.013-.371-.02-.557-.02a7.72,7.72,0,0,0-7.344,10.107H140.22a.753.753,0,1,0,0,1.505h13.927a7.715,7.715,0,0,0,13.335,0h3.386a4.6,4.6,0,0,1,4.59,4.59V95.069a4.6,4.6,0,0,1-4.59,4.59h-1.75a.753.753,0,0,0,0,1.505h1.75a6.1,6.1,0,0,0,6.095-6.1V78.433a6.1,6.1,0,0,0-6.095-6.095Z" transform="translate(-125.429 -58.523)" fill="#293147"/>
    <path id="Trazado_430" data-name="Trazado 430" d="M75.938,249.918H73.427a.753.753,0,0,0,0,1.505h2.511a.753.753,0,0,0,0-1.505Z" transform="translate(-65.359 -227.319)" fill="#293147"/>
    <path id="Trazado_431" data-name="Trazado 431" d="M75.938,279.1H73.427a.753.753,0,0,0,0,1.505h2.511a.753.753,0,0,0,0-1.505Z" transform="translate(-65.359 -253.562)" fill="#293147"/>
    <path id="Trazado_432" data-name="Trazado 432" d="M75.938,309.4H73.427a.753.753,0,0,0,0,1.505h2.511a.753.753,0,0,0,0-1.505Z" transform="translate(-65.359 -280.815)" fill="#293147"/>
    <path id="Trazado_433" data-name="Trazado 433" d="M75.938,338.582H73.427a.753.753,0,1,0,0,1.505h2.511a.753.753,0,1,0,0-1.505Z" transform="translate(-65.359 -307.058)" fill="#293147"/>
    <path id="Trazado_434" data-name="Trazado 434" d="M180.7,33.86a4.238,4.238,0,1,0-4.238-4.238A4.242,4.242,0,0,0,180.7,33.86Zm0-6.97a2.732,2.732,0,1,1-2.732,2.732A2.735,2.735,0,0,1,180.7,26.89Z" transform="translate(-158.697 -25.385)" fill="#293147"/>
    <path id="Trazado_435" data-name="Trazado 435" d="M331.915,105.413a.753.753,0,0,0-.753.753v5.247a.753.753,0,0,0,.753.753h0s1.4-.006,1.787-.006a2.162,2.162,0,0,0,1.421-3.794,1.956,1.956,0,0,0-1.688-2.952h-1.524Zm1.79,5.241-1.038,0v-1.322h1.038a.66.66,0,1,1,0,1.319Zm.189-3.281a.455.455,0,0,1-.455.455h-.772v-.911h.772A.455.455,0,0,1,333.894,107.373Z" transform="translate(-297.83 -97.358)" fill="#293147"/>
    <path id="Trazado_436" data-name="Trazado 436" d="M309.557,227.286a7.907,7.907,0,1,0,7.907,7.907A7.907,7.907,0,0,0,309.557,227.286Zm-5.534,4.695a4.178,4.178,0,0,1,2.936,1.225c.09.09.175.184.256.281a2.9,2.9,0,0,0-.361.659c-.179-.017-.359-.026-.539-.026a5.683,5.683,0,0,0-3.157.956A6.358,6.358,0,0,1,304.023,231.981Zm3.89-2.974a4.18,4.18,0,0,1,1.212,2.945c0,.126-.007.252-.018.378a2.872,2.872,0,0,0-.721.213c-.115-.139-.235-.273-.363-.4a5.681,5.681,0,0,0-2.9-1.556A6.4,6.4,0,0,1,307.913,229.006Zm4.856.653a4.179,4.179,0,0,1-1.225,2.936c-.09.09-.184.175-.281.256a2.9,2.9,0,0,0-.658-.36c.017-.179.026-.359.026-.54a5.682,5.682,0,0,0-.956-3.157A6.359,6.359,0,0,1,312.769,229.659Zm.03,6.607a5.683,5.683,0,0,0,3.157-.956,6.36,6.36,0,0,1-.865,3.094,4.178,4.178,0,0,1-2.936-1.225c-.09-.09-.175-.184-.256-.281a2.894,2.894,0,0,0,.361-.659C312.438,236.257,312.618,236.266,312.8,236.266Zm-1.6,5.113a4.18,4.18,0,0,1-1.212-2.945c0-.126.007-.252.018-.378a2.871,2.871,0,0,0,.721-.213c.115.139.235.273.363.4a5.683,5.683,0,0,0,2.9,1.556A6.4,6.4,0,0,1,311.2,241.379Zm-4.856-.653a4.18,4.18,0,0,1,1.225-2.936c.09-.09.184-.174.282-.256a2.9,2.9,0,0,0,.658.36c-.017.179-.026.359-.026.54a5.682,5.682,0,0,0,.956,3.157A6.358,6.358,0,0,1,306.345,240.726Zm3.212-6.927a1.394,1.394,0,1,1-1.394,1.394A1.4,1.4,0,0,1,309.557,233.8Zm-6.186,3.037a4.18,4.18,0,0,1,2.945-1.212c.126,0,.252.007.378.018a2.874,2.874,0,0,0,.213.721c-.139.115-.273.235-.4.362a5.683,5.683,0,0,0-1.555,2.9A6.4,6.4,0,0,1,303.37,236.837Zm12.373-3.288a4.18,4.18,0,0,1-2.945,1.212c-.126,0-.252-.007-.378-.018a2.873,2.873,0,0,0-.212-.721c.139-.115.273-.236.4-.363a5.683,5.683,0,0,0,1.555-2.9A6.4,6.4,0,0,1,315.743,233.549Z" transform="translate(-271.288 -206.965)" fill="#293147"/>
    <g id="Grupo_724" data-name="Grupo 724" transform="translate(12.665 20.321)">
      <path id="Trazado_437" data-name="Trazado 437" d="M133.735,227.286a7.907,7.907,0,1,0,7.907,7.907A7.907,7.907,0,0,0,133.735,227.286Zm3.212,2.373a4.18,4.18,0,0,1-1.225,2.936c-.09.09-.184.175-.281.256a2.9,2.9,0,0,0-.658-.36c.017-.179.026-.359.026-.54a5.683,5.683,0,0,0-.956-3.157A6.359,6.359,0,0,1,136.947,229.659Zm-4.856-.653a4.18,4.18,0,0,1,1.212,2.945c0,.126-.006.252-.018.378a2.872,2.872,0,0,0-.721.213c-.115-.139-.236-.273-.363-.4a5.682,5.682,0,0,0-2.9-1.555A6.4,6.4,0,0,1,132.091,229.006Zm-3.89,2.974a4.181,4.181,0,0,1,2.936,1.225c.09.09.175.184.256.281a2.9,2.9,0,0,0-.361.659c-.179-.017-.359-.026-.54-.026a5.683,5.683,0,0,0-3.157.956A6.357,6.357,0,0,1,128.2,231.981Zm-.653,4.856a4.18,4.18,0,0,1,2.945-1.212c.126,0,.252.007.378.018a2.874,2.874,0,0,0,.213.721c-.139.115-.273.235-.4.362a5.682,5.682,0,0,0-1.555,2.9A6.4,6.4,0,0,1,127.548,236.837Zm2.974,3.89a4.179,4.179,0,0,1,1.225-2.936c.09-.09.184-.174.281-.256a2.894,2.894,0,0,0,.658.36c-.017.179-.026.359-.026.539a5.682,5.682,0,0,0,.956,3.157A6.357,6.357,0,0,1,130.523,240.726Zm1.818-5.534a1.394,1.394,0,1,1,1.394,1.394A1.4,1.4,0,0,1,132.341,235.193Zm3.037,6.186a4.18,4.18,0,0,1-1.212-2.945c0-.126.007-.252.018-.378a2.872,2.872,0,0,0,.721-.213c.115.139.236.273.363.4a5.683,5.683,0,0,0,2.9,1.556A6.4,6.4,0,0,1,135.379,241.379Zm3.89-2.974a4.18,4.18,0,0,1-2.936-1.225c-.09-.09-.175-.184-.256-.281a2.9,2.9,0,0,0,.361-.659c.179.017.359.026.54.026a5.682,5.682,0,0,0,3.157-.956,6.358,6.358,0,0,1-.865,3.094Zm-2.292-3.644c-.126,0-.252-.007-.378-.018a2.875,2.875,0,0,0-.212-.721c.139-.115.273-.236.4-.363a5.683,5.683,0,0,0,1.555-2.9,6.4,6.4,0,0,1,1.58,2.794A4.181,4.181,0,0,1,136.976,234.761Z" transform="translate(-125.828 -227.286)" fill="#293147"/>
    </g>
  </g>
</svg>
