<svg id="Grupo_747" data-name="Grupo 747" xmlns="http://www.w3.org/2000/svg" width="21.485" height="41.37" viewBox="0 0 21.485 41.37">
  <g id="Grupo_742" data-name="Grupo 742" transform="translate(0.134)">
    <path id="Trazado_681" data-name="Trazado 681" d="M51.809.956a5.543,5.543,0,0,0-5.463,5.463V22.447a10.675,10.675,0,0,0-5.225,9.339,10.691,10.691,0,0,0,21.1,2.283.607.607,0,1,0-1.182-.275,9.477,9.477,0,0,1-18.7-2.024,9.466,9.466,0,0,1,4.911-8.439.607.607,0,0,0,.314-.532V6.419A4.287,4.287,0,0,1,51.808,2.17C54.151,2.17,54.656.956,51.809.956Z" transform="translate(-41.119 -0.956)" fill="#293147"/>
    <path id="Trazado_682" data-name="Trazado 682" d="M74.718,49.965a.607.607,0,0,0,.463-.59V40.3a.607.607,0,1,0-1.214,0v8.611a7.434,7.434,0,0,0-5.227,7.105,7.452,7.452,0,1,0,14.9.006,7.433,7.433,0,0,0-5.227-7.112V30.808a2.226,2.226,0,1,0-4.451,0v6.849a.607.607,0,1,0,1.214,0V30.808a1.012,1.012,0,1,1,2.023,0V49.375a.607.607,0,0,0,.463.59,6.224,6.224,0,0,1,4.763,6.061,6.334,6.334,0,0,1-6.579,6.23,6.238,6.238,0,0,1-1.134-12.29Z" transform="translate(-65.504 -25.345)" fill="#293147"/>
    <path id="Trazado_687" data-name="Trazado 687" d="M51.547.956A5.543,5.543,0,0,1,57.01,6.419V22.447a10.675,10.675,0,0,1,5.225,9.339,10.691,10.691,0,0,1-21.1,2.283.607.607,0,0,1,1.182-.275,9.477,9.477,0,0,0,18.7-2.024,9.466,9.466,0,0,0-4.911-8.439A.607.607,0,0,1,55.8,22.8V6.419A4.287,4.287,0,0,0,51.547,2.17C49.2,2.17,48.7.956,51.547.956Z" transform="translate(-40.885 -0.956)" fill="#293147"/>
  </g>
  <g id="Grupo_743" data-name="Grupo 743" transform="translate(0 7.369)">
    <path id="Trazado_683" data-name="Trazado 683" d="M44.011,65.055H41.58a.608.608,0,1,1,0-1.215h2.431a.608.608,0,1,1,0,1.215Z" transform="translate(-40.973 -63.84)" fill="#293147"/>
  </g>
  <g id="Grupo_744" data-name="Grupo 744" transform="translate(0 11.136)">
    <path id="Trazado_684" data-name="Trazado 684" d="M44.011,97.2H41.58a.608.608,0,1,1,0-1.215h2.431a.608.608,0,1,1,0,1.215Z" transform="translate(-40.973 -95.988)" fill="#293147"/>
  </g>
  <g id="Grupo_745" data-name="Grupo 745" transform="translate(0 14.903)">
    <path id="Trazado_685" data-name="Trazado 685" d="M44.011,129.352H41.58a.608.608,0,0,1,0-1.215h2.431a.608.608,0,0,1,0,1.215Z" transform="translate(-40.973 -128.137)" fill="#293147"/>
  </g>
  <g id="Grupo_746" data-name="Grupo 746" transform="translate(0 18.67)">
    <path id="Trazado_686" data-name="Trazado 686" d="M44.011,161.5H41.58a.608.608,0,0,1,0-1.215h2.431a.608.608,0,0,1,0,1.215Z" transform="translate(-40.973 -160.285)" fill="#293147"/>
  </g>
</svg>
