<svg id="Capa_1" data-name="Capa 1" xmlns="http://www.w3.org/2000/svg" xmlns:xlink="http://www.w3.org/1999/xlink" viewBox="0 0 32.8 32.8"><defs><style>.cls-1{fill:url(#Degradado_sin_nombre);}.cls-2{fill:#fff;}.cls-3{fill:none;stroke:#fff;stroke-miterlimit:10;}</style><linearGradient id="Degradado_sin_nombre" x1="102.3" y1="10.28" x2="103.3" y2="10.28" gradientTransform="translate(-3349.86 -320.17) scale(32.74)" gradientUnits="userSpaceOnUse"><stop offset="0.07" stop-color="#92fe9d"/><stop offset="1" stop-color="#00c9ff"/></linearGradient></defs><circle class="cls-1" cx="16.4" cy="16.4" r="16.4"/><path class="cls-2" d="M34,24.13l-1.8,1.8,1-.3c-1.4-.5-2.3.7-3.1,1.5s-2.1,1.7-1.5,3.1l.3-1c-1.5,1.5-3.3,2.9-3.1,5.2a4.53,4.53,0,0,0,.8,2.2c.6.8,1.6,1.5,2.5.5a2,2,0,0,0,.3-1.5,2.61,2.61,0,0,1,.7-1.7l1.8-1.8-1,.3a1.84,1.84,0,0,0,2-.4h-1.4l3.9,4v-1.4h0a1,1,0,0,0,0,1.4,1,1,0,0,1,.4.5,1,1,0,0,0,1.4,0l2.2-2.2a1,1,0,0,0,0-1.4l-.3-.3-.1-.1a.1.1,0,0,0-.1-.1l-.3-.3-1.3-1.3-2.1-2.1v1.4a1.84,1.84,0,0,0,.4-2l-.3,1,1.6-1.6a3.6,3.6,0,0,1,1.2-.8,7.57,7.57,0,0,1,1.5-.1,1.36,1.36,0,0,0,1.2-1.5.76.76,0,0,0-.2-.5,4.07,4.07,0,0,0-2-1.4,4,4,0,0,0-4.6.9c-1,.9.5,2.4,1.4,1.5a2.61,2.61,0,0,1,1.7-.7,1.88,1.88,0,0,1,.8.2c.1.1.2.1.4.2s.1.1.2.1c.1.2.2.2.1,0v-.5h0l.4-.4c.2-.2.4-.1,0-.1h-.3a5.85,5.85,0,0,0-1.3.2,4.66,4.66,0,0,0-2,1.2c-.6.6-1.2,1.2-1.8,1.7a1,1,0,0,0-.3,1c.1.3,0,.1.1.1a1,1,0,0,0,0,1.4l2.1,2.1,1.3,1.3.4.4h0l.6.6V33c-.7.8-1.5,1.5-2.2,2.2H37a2.18,2.18,0,0,1-.4-.5v1.4h0a1,1,0,0,0,0-1.4l-3.9-3.9a1,1,0,0,0-1.4,0c.1-.1.2,0-.1-.1a1,1,0,0,0-1,.3c-.6.6-1.2,1.2-1.8,1.7a4.74,4.74,0,0,0-1.2,1.9,5,5,0,0,0-.2,1.2v.4c0,.3-.1.2,0,0l.4-.4-.1.1.5-.1h-.2l.5.1a2.21,2.21,0,0,1-.6-1.9,2.67,2.67,0,0,1,.7-1.4c.6-.6,1.2-1.2,1.8-1.7a1,1,0,0,0,.3-1c-.1-.3-.1,0,0-.1l.2-.2.9-.8.8-.8c.1-.1.1-.2.2-.2s-.2-.1.1.1a1,1,0,0,0,1-.3l1.8-1.8a1,1,0,0,0-.1-1.4C34.87,23.73,34.37,23.73,34,24.13Z" transform="translate(-16.74 -13.89)"/><path class="cls-2" d="M29.77,30.43l-1.5,1.5c-.3.3-.6.7-.9,1a5.38,5.38,0,0,0-.9,2.5l1.9-.5h0a.1.1,0,0,0-.1-.1c0-.1-.1-.2-.1-.3v-.6a.37.37,0,0,1,.1-.3v0a2.19,2.19,0,0,1,.3-.5c-.1.1-.1.1,0,.1a.1.1,0,0,1,.1-.1.1.1,0,0,0,.1-.1l.2-.2,1.5-1.5h-1.4l.7.7a1,1,0,0,0,1.4-1.4h0l-.7-.7a1,1,0,0,0-1.4,0l-1.6,1.6a3.86,3.86,0,0,0-1.1,1.7,3.67,3.67,0,0,0,.3,2.9,1.08,1.08,0,0,0,1.2.5,1.21,1.21,0,0,0,.8-1v-.2h0v-.2a.76.76,0,0,1,.2-.5h0c0-.1.1-.2.2-.3s.1-.1.1-.2.1-.2,0,0a2.34,2.34,0,0,1,.7-.7l1.4-1.4a1,1,0,0,0,0-1.4c-.4-.4-1.1-.7-1.5-.3Z" transform="translate(-16.74 -13.89)"/><path class="cls-2" d="M37,32.83l-1.3,1.3h1.4l-3.4-3.5-.5-.5v1.4l1.3-1.3h-1.4l3.4,3.5.5.5a1,1,0,1,0,1.4-1.4L35,29.33l-.5-.5a1,1,0,0,0-1.4,0l-1.3,1.3a1,1,0,0,0,0,1.4l3.4,3.5.5.5a1,1,0,0,0,1.4,0l1.3-1.3a1,1,0,0,0-1.4-1.4Z" transform="translate(-16.74 -13.89)"/><path class="cls-2" d="M33.07,29a.67.67,0,0,1,0-1,.1.1,0,0,0-.1.1l-.3.3-1,1-.7.7-.1.1h0l.2-.1a.48.48,0,0,1,.7,0l.2.1-.3-.3a6,6,0,0,0-.8-.8h0a.67.67,0,0,1,0,1h0l.3-.3,1.7-1.7L33,28h0a.73.73,0,0,1-1,0h0l.2.2.9.8a1.09,1.09,0,0,0,1.5,0,1,1,0,0,0,0-1.4l-.8-.8c-.1-.2-.3-.3-.5-.5a1.53,1.53,0,0,0-1.7.2l-1.8,1.8-.3.3a1.42,1.42,0,0,0-.4,1.4,4.12,4.12,0,0,0,1,1.3l.4.4a1.39,1.39,0,0,0,1.9,0l.6-.6,1.2-1.2.3-.3c.1-.1.2-.3.3-.4a1.4,1.4,0,0,0-.3-1.5,1,1,0,0,0-1.4,0A.85.85,0,0,0,33.07,29Z" transform="translate(-16.74 -13.89)"/><path class="cls-2" d="M35.07,25.23l-1.8,1.7h1.4l-.7-.7v1.4l1.5-1.5.2-.2.1-.1c.1-.1-.2.1,0,0s.2-.1.3-.2.3-.1.1-.1.1,0,.2-.1a.37.37,0,0,0,.3-.1c.2-.1-.2,0,0,0h.5c.1,0,.2.1.3.1h0a.1.1,0,0,1,.1.1l.5-1.9a5.91,5.91,0,0,0-3,1.6,1.09,1.09,0,0,0,0,1.5,1,1,0,0,0,1.4,0c.1-.1.2-.1.2-.2h0l.1-.1.6-.3c.1-.1-.2.1,0,0s.1,0,.1-.1.2-.1.3-.1a.37.37,0,0,0,.3-.1h.2a1,1,0,0,0,1-.8,1.22,1.22,0,0,0-.5-1.2,3.67,3.67,0,0,0-2.9-.3,4.52,4.52,0,0,0-1.7,1.1l-1.6,1.6a1,1,0,0,0,0,1.4l.7.7a1,1,0,0,0,1.4,0l1.8-1.7a1,1,0,0,0-1.4-1.4Z" transform="translate(-16.74 -13.89)"/><path class="cls-3" d="M32.17,29.43" transform="translate(-16.74 -13.89)"/><rect class="cls-2" x="14.4" y="14.1" width="1.6" height="2"/></svg>