<svg id="energetic" xmlns="http://www.w3.org/2000/svg" width="37.322" height="45.536" viewBox="0 0 37.322 45.536">
  <path id="Trazado_688" data-name="Trazado 688" d="M366.5,89.929a.669.669,0,0,0-.935.142l-1.688,2.29a.669.669,0,0,0,1.077.793l1.688-2.29A.669.669,0,0,0,366.5,89.929Z" transform="translate(-335.421 -81.791)" fill="#293147"/>
  <path id="Trazado_689" data-name="Trazado 689" d="M364.958,382.724a.669.669,0,0,0-1.077.793l1.688,2.29a.669.669,0,0,0,1.077-.793Z" transform="translate(-335.421 -348.348)" fill="#293147"/>
  <path id="Trazado_690" data-name="Trazado 690" d="M426.252,248.968H423.9a.669.669,0,0,0,0,1.338h2.351a.669.669,0,1,0,0-1.338Z" transform="translate(-389.599 -226.767)" fill="#293147"/>
  <path id="Trazado_691" data-name="Trazado 691" d="M114.793,93.155a.669.669,0,1,0,1.077-.793l-1.688-2.29a.669.669,0,0,0-1.077.793Z" transform="translate(-107.008 -81.791)" fill="#293147"/>
  <path id="Trazado_692" data-name="Trazado 692" d="M115.728,382.582a.669.669,0,0,0-.935.142l-1.688,2.29a.669.669,0,1,0,1.077.793l1.688-2.29A.669.669,0,0,0,115.728,382.582Z" transform="translate(-107.007 -348.348)" fill="#293147"/>
  <path id="Trazado_693" data-name="Trazado 693" d="M49.078,248.968H46.728a.669.669,0,1,0,0,1.338h2.351a.669.669,0,1,0,0-1.338Z" transform="translate(-46.059 -226.767)" fill="#293147"/>
  <path id="Trazado_694" data-name="Trazado 694" d="M126.223,159.27a.669.669,0,0,0-.9.3l-3.3,6.595,1.434-14.619a.859.859,0,0,0-.855-.943h-7.535L122,137.133a.669.669,0,1,0-1.189-.612l-7.291,14.167a.859.859,0,0,0,.764,1.252h7.792l-1.636,16.668a.849.849,0,0,0,.617.909.884.884,0,0,0,.245.035.847.847,0,0,0,.761-.476l4.454-8.909A.669.669,0,0,0,126.223,159.27Z" transform="translate(-107.421 -124.016)" fill="#293147"/>
  <path id="Trazado_695" data-name="Trazado 695" d="M210.558,10.848a.669.669,0,0,0,.9-.289l3.775-7.336-1.154,13.8a.859.859,0,0,0,.856.93h2.571a.669.669,0,1,0,0-1.338h-2.051L216.767.932a.859.859,0,0,0-1.62-.465l-4.879,9.48A.669.669,0,0,0,210.558,10.848Z" transform="translate(-195.558 0)" fill="#293147"/>
  <path id="Trazado_696" data-name="Trazado 696" d="M269.469,186.751a.853.853,0,0,0-.731-.407h-2.679a.669.669,0,1,0,0,1.338h1.9l-7.522,15.044a.669.669,0,1,0,1.2.6l7.868-15.737A.854.854,0,0,0,269.469,186.751Z" transform="translate(-241.261 -169.727)" fill="#293147"/>
</svg>
