<svg id="speedometer" xmlns="http://www.w3.org/2000/svg" width="55" height="31.072" viewBox="0 0 55 31.072">
  <path id="Trazado_718" data-name="Trazado 718" d="M127.559,119.974a27.5,27.5,0,0,0-37.007-1.717.8.8,0,0,0,1.025,1.234,25.9,25.9,0,0,1,42.433,19.929.8.8,0,1,0,1.6,0,27.32,27.32,0,0,0-8.055-19.446Z" transform="translate(-80.614 -111.919)" fill="#293147"/>
  <path id="Trazado_719" data-name="Trazado 719" d="M8.506,191.721a.8.8,0,0,0-1.133.04A27.405,27.405,0,0,0,0,210.5a.8.8,0,0,0,1.6,0,25.807,25.807,0,0,1,6.943-17.644A.8.8,0,0,0,8.506,191.721Z" transform="translate(0 -182.998)" fill="#293147"/>
  <path id="Trazado_720" data-name="Trazado 720" d="M227.637,310.978l-6.911,3.762a3.57,3.57,0,0,0-6.109,3.325l-.831.453a.8.8,0,1,0,.767,1.408l.831-.452a3.569,3.569,0,0,0,6.113-3.328l6.908-3.76a.8.8,0,0,0-.767-1.408Zm-9.58,8.1a1.968,1.968,0,1,1,1.968-1.968A1.97,1.97,0,0,1,218.057,319.08Z" transform="translate(-190.557 -289.612)" fill="#293147"/>
  <path id="Trazado_721" data-name="Trazado 721" d="M202.984,269.925h3.266a1.486,1.486,0,0,0,1.485-1.485v-2.5a1.487,1.487,0,0,0-1.485-1.485h-10.5a1.487,1.487,0,0,0-1.485,1.485v2.5a1.487,1.487,0,0,0,1.485,1.485h7.229Zm3.147-1.6h-2.345v-2.264h2.345Zm-3.949-2.264v2.264h-2.36v-2.264Zm-6.309,0h2.345v2.264h-2.345Z" transform="translate(-173.502 -248.148)" fill="#293147"/>
  <path id="Trazado_722" data-name="Trazado 722" d="M94.5,184.914l-1.926-.055a19.229,19.229,0,0,0-1.036-6.008l1.793-.7a.8.8,0,1,0-.581-1.494l-1.8.7a19.376,19.376,0,0,0-3.3-5.123l1.388-1.348a.8.8,0,1,0-1.117-1.15l-1.387,1.348a19.4,19.4,0,0,0-5.027-3.447l.75-1.775a.8.8,0,1,0-1.477-.624l-.749,1.773a19.2,19.2,0,0,0-5.976-1.21v-1.926a.8.8,0,1,0-1.6,0V165.8a19.2,19.2,0,0,0-5.976,1.21l-.749-1.773a.8.8,0,1,0-1.477.624l.75,1.775a19.4,19.4,0,0,0-5.027,3.447l-1.387-1.348a.8.8,0,1,0-1.117,1.15l1.388,1.348a19.375,19.375,0,0,0-3.3,5.123l-1.8-.7a.8.8,0,1,0-.581,1.494l1.793.7a19.229,19.229,0,0,0-1.036,6.008l-1.926.055a.8.8,0,0,0,.023,1.6h.024l2.29-.066a2.4,2.4,0,0,0,4.4-1.347,14.5,14.5,0,0,1,24.634-10.386A.8.8,0,1,0,84.5,173.57,16.106,16.106,0,0,0,57.146,185.1a.8.8,0,1,1-1.6,0,17.718,17.718,0,1,1,35.436,0,.8.8,0,1,1-1.6,0,16.037,16.037,0,0,0-2.569-8.72.8.8,0,1,0-1.347.87,14.437,14.437,0,0,1,2.312,7.85,2.4,2.4,0,0,0,4.4,1.347l2.29.066h.024a.8.8,0,0,0,.023-1.6Z" transform="translate(-45.76 -157.605)" fill="#293147"/>
</svg>
